# xmcd
#
# Track frame offsets:
#	150
#	18540
#	37160
#	56932
#	73497
#	93917
#	112940
#	124317
#	146540
#	176035
#	201957
#
# Disc length: 3042 seconds
#
# Revision: 1
# Processed by: cddbd v1.4PL0 Copyright (c) Steve Scherf et al.
# Submitted via: audiograbber 1.80.04
#
DISCID=ac0be00b
DTITLE=Guitar Daddy and The Hurricanes - Guitar Daddy and The Hurricanes
DYEAR=1900
DGENRE=
TTITLE0=Slapped In The Face
TTITLE1=Just Killing Time
TTITLE2=Cadillac Down
TTITLE3=Dover Hotel
TTITLE4=Don't Say You Don't Love Me
TTITLE5=Pak Man Funk
TTITLE6=Bad News Blues
TTITLE7=Auh Yeah
TTITLE8=Little Sally
TTITLE9=Afternoon In Hell
TTITLE10=Mantra
EXTD=
EXTT0=
EXTT1=
EXTT2=
EXTT3=
EXTT4=
EXTT5=
EXTT6=
EXTT7=
EXTT8=
EXTT9=
EXTT10=
PLAYORDER=
